<svg xmlns="http://www.w3.org/2000/svg"
 xmlns:xlink="http://www.w3.org/1999/xlink"
 width="22px" height="17px"  viewBox="0 0 22 17">
<path fill-rule="evenodd"  fill="#4ec83d"
 d="M1.9999847,1.9999523 C1.9999847,1.9999523 19.999996,1.9999523 19.999996,1.9999523 C20.552269,1.9999523 21.0,2.4472675 21.0,2.9998875 C21.0,3.5520554 20.552269,3.9998207 19.999996,3.9998207 C19.999996,3.9998207 1.9999847,3.9998207 1.9999847,3.9998207 C1.447712,3.9998207 1.0,3.5520554 1.0,2.9998875 C1.0,2.4472675 1.447712,1.9999523 1.9999847,1.9999523 ZM1.9999847,7.9995537 C1.9999847,7.9995537 19.999996,7.9995537 19.999996,7.9995537 C20.552269,7.9995537 21.0,8.447319 21.0,8.999937 C21.0,9.552107 20.552269,9.99987 19.999996,9.99987 C19.999996,9.99987 1.9999847,9.99987 1.9999847,9.99987 C1.447712,9.99987 1.0,9.552107 1.0,8.999937 C1.0,8.447319 1.447712,7.9995537 1.9999847,7.9995537 ZM1.9999847,13.999603 C1.9999847,13.999603 19.999996,13.999603 19.999996,13.999603 C20.552269,13.999603 21.0,14.447369 21.0,14.999989 C21.0,15.552158 20.552269,15.999924 19.999996,15.999924 C19.999996,15.999924 1.9999847,15.999924 1.9999847,15.999924 C1.447712,15.999924 1.0,15.552158 1.0,14.999989 C1.0,14.447369 1.447712,13.999603 1.9999847,13.999603 Z"/>
</svg>