<?xml version="1.0" encoding="utf-8"?>
<!-- Generator: Adobe Illustrator 22.1.0, SVG Export Plug-In . SVG Version: 6.00 Build 0)  -->
<svg version="1.1" id="Capa_1" xmlns="http://www.w3.org/2000/svg" xmlns:xlink="http://www.w3.org/1999/xlink" x="0px" y="0px"
	 viewBox="0 0 52.2 52.2" style="enable-background:new 0 0 52.2 52.2;" xml:space="preserve">
<style type="text/css">
	.st0{fill:#1FBA0A;}
</style>
<g>
	<path class="st0" d="M47.5,20.1c-2.2,0.4-4.8,2.2-8.2,1.7s-2.8-4.1-2.8-4.9s0.6-1.3,1.6-3.9s-7-3.8-9.2-3.8s-1.3,0.5-1.8,0.4
		S25.2,9.2,23,8.9S16.2,9.5,12.1,10S4,11.9,1.5,13.7c-2.5,1.8-1.5,6.2,0,8.7c1.5,2.5,3.3,5,5.2,6.3c1.9,1.3,6.2,3.1,6.2,3.5
		c-0.2,2,1.1,7.1,2.3,7.8s1.3,0,2.6-1.6s2-3.3,3.8-4.3s5.9-1.3,9.5-1.3s3.9,1.2,4.6,3.7s0.9,4.9,2.8,6.4s3.9-0.1,5.1-2.7
		s2.9-8.8,4.6-10.6c1.8-1.8,3.5-3.2,4.1-5.7S49.7,19.7,47.5,20.1z M29.4,10.4c2.6,0.3,5.8,0.8,6.9,1.8s0.7,1.5,0.3,2.1
		s-0.9,0.9-1.3,2.1s-0.7-0.3-1.4-1.6s-1.1-2.1-3-3.2S29.2,10.4,29.4,10.4z M12.1,29.5c-0.8,0.3-2.9-0.8-6.3-4.3S1.3,17.5,2.4,16
		c1.1-1.5,3.6-3,8.1-3.9c0,0,1.3-0.3,3.3-0.6s4.8,0.7,6.3,3.1s0.5,7-1.5,10.4C16.4,28.5,12.9,29.2,12.1,29.5z M19.1,34.1
		c-0.6,0.4-1.3,2-2.3,3.2c-0.9,1.2-0.7,1.5-1.2,1.6c-0.5,0.1-0.6-0.7-0.9-1.4c-0.3-0.7-0.8-3-0.9-4.1s0.9-1.1,1.7-0.8
		c0.8,0.3,3.1,0.3,4,0.5S19.8,33.7,19.1,34.1z M48.9,26.5c-1.1,1.1-2.4,1.9-3.3,3.6s-2.7,6.2-3.4,8.6s-1.4,3-2.6,2.9s-1.8-2.8-2.1-5
		s-0.8-3.4-1.8-4.8s-4.8-0.4-10.5-0.3s-9.4-0.8-10.4-1.1s1.6-1.4,3.4-2.7c1.8-1.3,2.1-2.4,3.6-8s-1.2-7.4-2.4-8s-0.4-1.1,0.1-1
		c3.1,0.5,8.7,0.4,11.8,3.8s3.9,7.3,6.8,8.9s7.5-0.6,9-1.1s1.8-0.4,2.7,0.5S49.9,25.4,48.9,26.5z M14.2,13.5c-1.2-0.3-2.6,0.9-3.3,2
		s0.7,2.9,2.5,3c1.8,0.1,3-2,3-3C16.3,14.7,15.7,13.9,14.2,13.5z M14,17.4c-0.7,0.4-1,0.1-1.9-0.5c-0.9-0.6,0-1.9,0.9-2.2
		c1.3-0.5,2,0,2.3,0.5S14.7,17.1,14,17.4z M25,15.3c-0.5-0.1-1,0.5-0.8,1.3s1.3,0.5,1.6,0.2C26.1,16.4,26.1,15.4,25,15.3z
		 M29.8,17.1c-0.5-0.2-1.6,0.5-1.8,1.1c-0.2,0.5,0,1.5,1.1,1.7c1.1,0.2,1.8-1.2,1.7-1.7C30.7,17.6,30.1,17.2,29.8,17.1z M24.1,21.9
		c-0.6-0.2-1.4,0.7-1.2,1.6s1.2,0.8,1.8,0.4S25.1,22.2,24.1,21.9z M21,27.9c-0.4-0.1-1.7,0.5-1,1.4c0.7,0.8,1.2,0.5,1.9,0.1
		C22.6,29,21.7,28.2,21,27.9z M26.3,28.2c-0.5-0.1-1.6,0.6-1,1.2c0.5,0.6,0.5,0.6,1.4,0.3C27.6,29.3,27.4,28.4,26.3,28.2z
		 M28.9,24.1c-0.7-0.1-1.3,0.3-1.3,1c0,0.8,1,1,1.7,0.8C30,25.7,30.1,24.3,28.9,24.1z M35.3,23.7c-0.6-0.2-1.8,0.5-1.4,1.3
		c0.4,0.7,1.3,0.5,1.7,0.4C36,25.2,36.1,23.9,35.3,23.7z M34.2,27.5c-0.4,0-0.2,0.5-0.6,0.8s-1.3,0.5-0.8,1c0.5,0.5,1.1,0.8,1.7,0.5
		C35.1,29.6,36,27.4,34.2,27.5z M38.3,25.9c-0.3,0-1,0.8-0.6,1.1c0.4,0.3,1.3,0,1.5-0.3C39.4,26.5,39,25.9,38.3,25.9z M38.5,30.8
		c-0.4,0.3,0,0.8,0.8,1.5s1.5,1.5,1.9,1.1c0.4-0.4-1-1.6-1.5-2.3C39.4,30.6,38.9,30.4,38.5,30.8z M42.3,26.3c-1-0.1-1.8,0.4-1.5,0.9
		s0.9,0.3,2.3,0.3s2.3-0.4,1.9-0.7C44.5,26.4,43.4,26.4,42.3,26.3z"/>
</g>
</svg>
