<?xml version="1.0" encoding="utf-8"?>
<!-- Generator: Adobe Illustrator 22.1.0, SVG Export Plug-In . SVG Version: 6.00 Build 0)  -->
<svg version="1.1" id="Capa_1" xmlns="http://www.w3.org/2000/svg" xmlns:xlink="http://www.w3.org/1999/xlink" x="0px" y="0px"
	 viewBox="0 0 120 120" style="enable-background:new 0 0 120 120;" xml:space="preserve">
<style type="text/css">
	.st0{fill:#1FBA0A;}
</style>
<g id="_x30_401-vegan">
	<g>
		<path class="st0" d="M6,86c0.1,1,1.1,1.2,2,1.5c4.1-1.7,6.7-4.8,10.3-7c1.5-1.4,3.4-2.4,5-3.8c1.8-1.1,3.3-2.5,5.3-3.5
			c1.5-1.3,3.3-2.4,5-3.5c1.8-1.2,3.4-2.6,5.3-3.5c0.6-0.8,1.6-1.2,2.5-1.8c0.8-0.7,1.6-1.4,2.8-1.7c1.5-1.4,3.5-2.4,5.3-3.5
			c7-4.6,14.8-8.4,22-12.8c3.4-2.4,7.1-4.4,10-7.3c1.6-1.3,2.9-3,4.5-4.3c1.5-1.4,3.8-2.1,4-4.7c0.2-2.1-0.9-2.8-1.5-4
			c-0.4-1.5-1.2-2.7-1.7-4c-2.4-2.6-4.8-5.2-8.3-6.7c-3.3-1.8-7.3-2.9-12-3.3H58c-0.3,0-0.3,0.3-0.8,0.3c-6,0.3-11,1.7-15.7,3.3
			c-2.4,0.8-4.8,1.6-6.8,2.7c-2.5,0.7-4.3,2.1-6.5,3c-0.6-0.5-0.5-1.6-1.3-2c-0.3-0.9-1.3-1-2-1.5c-2.7-0.3-4.1,0.6-5.8,1.3
			c-0.3,0.8-1.5,0.9-1.8,1.8c-0.1,0.5-0.7,0.5-0.8,1c-0.4,0.1,0,1.2-0.5,1.3c-0.2,2.6,0.4,4.4,1.5,5.7C9.4,36.8,2.1,45.7,0,59.7V68
			c0.6,4,1.5,7.7,2.8,11c0.5,1.7,1.3,3.2,1.8,5C4.8,84.9,5.5,85.3,6,86z M23.8,22.2c0.4,0.8,0.5,2.6-0.8,2.5c-0.8-0.2-1-1-1-2
			C22.6,22.6,23,22.2,23.8,22.2z M8,61.7c0.8-2.7,1.1-5.9,2.5-8c0.6-2.8,2.1-4.7,2.8-7.5c2.5-4.4,5.6-8.3,8.8-12
			c1.7-1.2,3.5-2.2,5-3.5c0.7-0.3,0.3-1.9,0.8-2.5c1.1-0.5,2.3-1.1,3.3-2c0.7-0.2,1.4-0.4,1.8-1c0.7-0.2,1.3-0.4,1.8-0.8
			c2.4-1,4.7-2.1,7.3-3c5.2-1.6,10.4-3.2,17-3.5c0.4,0.1,0.4-0.2,0.8-0.2c9.9-0.6,16.8,1.8,21.5,6.5c0.7,0.7,0.6,2.1,1.5,2.5
			c0.4,0.8,0.8,1.7,1,2.8c-0.2,1.1-1.5,1.1-2.3,1.8c-0.6,0.6-1,1.5-1.8,2c-1.1,1.5-2.8,2.3-4,3.7c-1.8,0.8-2.9,2.3-4.8,3
			c-1.3,1.2-3.1,1.9-4.5,3c-3.3,1.8-6.5,3.7-9.8,5.5c-1.8,0.8-3.3,1.9-5,2.8c-1.6,0.9-3,2-4.8,2.7c-1.2,1.4-3.3,1.9-4.5,3.3
			c-1.1,0.3-1.5,1.2-2.5,1.5c-0.7,0.6-1.4,1.1-2.3,1.5c-1.4,1.2-3,2.2-4.5,3.3c-1.3,1.2-3,2-4.3,3.2c-1.8,0.8-3,2.2-4.8,3
			c-1.2,1.3-3.1,1.9-4.3,3.3c-1.7,0.9-3.1,2.1-4.5,3.3c-0.8,0.4-1.3,1.2-2.3,1.5c-0.5,0.7-1.1,1.4-2.3,1.5c-0.9-2.9-2.2-5.5-3-8.5
			C7.8,67.7,7.6,64.5,8,61.7z M14.3,71.3c0.9,0.1,1.1-0.5,1.5-1c0.7-0.1,0.2-1.5,0.8-1.8v-5c0.3-1.1,0.4-2.5,0.5-3.8
			c0.8-1.1,0.8-3.1,1.8-4c0.5-1.4,1-2.8,2-3.8c0.4-1.5,1.5-2.3,2.3-3.5c0.7-1.3,1.9-2.1,2.5-3.5c2.1-1.8,3.6-4.1,5.8-5.8
			c1.6-2.3,5-3.1,5-6.7c-0.5-0.7-1-1.5-2.5-1.3c-0.3,0.1-0.5,0.4-1,0.3c-5,3.1-8.7,7.5-12.5,11.7c-3.5,4.6-6.7,9.4-8.3,16
			c0.2,0.8-0.3,0.9-0.3,1.5v6.5C11.9,69.3,12.1,71.2,14.3,71.3z M113.8,94c-5.9,0.1-10.9-0.6-16.8-0.5c-5.6,0.1-10.6,0.9-16,1.3
			c1.5-1.5,3.5-2.3,5.2-3.5c1.8-1.2,3.4-2.6,5.3-3.7c3.5-3.6,6.9-7.3,7.7-13.5v-4c-0.4-1.4-0.5-3.2-1.3-4.3
			c-0.4-1.5-1.5-2.4-2.5-3.2c-2.7,0.2-4.2-0.8-7-0.5C77.6,63.7,72.1,70.9,67,78.5c-3.3-4.7-7.2-8.8-13.5-10.5
			c-4.5-0.7-9.7-0.1-12,2.3c0,0.4-0.2,0.6-0.5,0.8c-0.7,1.8-0.5,4.5-0.5,7c0.5,2.9,1.5,5.2,2.5,7.5c0.6,0.6,1.2,1.1,1.5,2
			c1.6,1.4,3.2,2.8,4.8,4.3c0.9,0.6,1.6,1.4,2.8,1.7c0.4,0.4,0.9,0.6,1.5,0.8c0.1,0.6,1.4,0.3,0.8,1c-9.3-0.8-19.7-0.4-29.8-0.5
			c-1,0.2-2.7-0.3-3.3,0.3c-2.1,0.1-4.8-0.3-6.5,0.2H8c-0.7,0.4-2.1,0.3-3,0.5c-0.9,0.3-1.7,0.6-1.8,1.8C3.5,98.3,4,98.7,4.8,99
			c0.7,0.3,1.9,0,2.5,0.5c2.1,0,4.2,0,6,0.3h4c2.2,1.7,3.2,4.5,5,6.5c1.1,0.4,2.1,0.9,3.3,1.3c0.2,0.1,0.5,0,0.5,0.2
			c8.8-0.1,17.7,0,25.8-0.8c4.2,0.2,8.3-0.3,12.3-0.5c4.1-0.2,7.9-0.3,11.7-0.5c8.2-0.5,16.2-1,25.8-0.7c0.7-1.2,1.1-2.6,1.7-3.8
			c0.1-0.8,1-0.9,1-1.8c0.7-0.2,0.5-1.3,1.5-1.3c2.9-0.1,5.4,0.1,8,0.3c1.5-0.2,2.3,0.4,3.7,0.3c1.7,0.3,1.7-1.2,2.5-1.8
			C119.2,94.9,116.3,94.6,113.8,94z M28,101.3c-1.1-0.2-1.5,0.3-2.5,0.2c-0.9-0.2-1.2-1-1.5-1.8h4V101.3z M31.5,100.7v-1
			c1.3-0.1,2.9-0.6,3.5,0.5C34.5,101,32.4,101.2,31.5,100.7z M38,100.5v-0.8c0.8-0.2,3,0.1,4.5,0C41.4,100.4,39.1,100.7,38,100.5z
			 M63.5,86.7c-0.6,0.6-0.7-0.3-1-0.8c-0.6-0.2-0.6-0.9-1-1.3c-0.6-0.8-1.4-1.4-2-2.2c-1.7-1.1-2.4-3.2-5.3-3.3
			c-1,0.1-1.6,0.7-1.8,1.7c-0.1,1.6,1,2,1.8,2.8c0.6,0.9,1.4,1.6,2.3,2.2c0.4,1.1,1.4,1.6,1.8,2.8c0.8,0.6,1,1.8,1.8,2.5
			c-0.6,0.6-1.7-0.3-2.3-0.5c-0.9-0.1-1.3-0.7-2.3-0.8c-1.4-1.4-3.2-2.3-4.8-3.5c-2.9-3.2-5.3-6.9-5.3-13V73c0.2,0,0.2-0.3,0.5-0.3
			h5c3.9,0.6,6.3,2.7,8.5,5c1,1,2.2,2.3,3,3.8c0.3,0.6,0.8,1.7,1,2.5C63.7,84.9,63.9,85.7,63.5,86.7z M70.8,82.7
			c0.5-1.3,1.3-2.3,2-3.5c1.4-2.2,3.2-4,4.8-6c3.7-2.9,7.1-6.1,13.8-6c1,0.6,2.1,1.1,3,1.8c0.2,2.2,0.2,3.3,0,5.5
			c-0.5,0.8-0.7,2-1.3,2.8c-0.4,0.9-1,1.7-1.5,2.5c-1.1,1.5-2.6,2.5-3.8,4c-5.6,3.8-11.2,7.6-17.8,10.5c0.4-1.1,1.2-1.7,1.7-2.5
			c0.7-0.7,1.1-1.7,2-2.3c1.2-1.6,2.8-2.8,4.3-4.3c1.6-1.2,3.4-2.2,4.8-3.7c1.1-0.3,1.6-1.3,2.3-2c0.8-0.6,1.6-1.2,1.5-2.8
			c-1.2-1.7-4-0.1-5.3,0.5C79.6,78,78.2,79,76.8,80c-1.4,1-2.6,2.2-4,3.3c-0.5,0.7-1.1,1.3-1.8,1.8c-0.1,0.5-0.7,0.5-0.7,1
			c-0.1,0.2-0.7,1.1-0.8,0.5C69,85.3,70.1,83.7,70.8,82.7z M93.3,100.5H87c-1.6,0.4-3.9,0.1-5.5,0.5H78c-0.9-0.2-1,0.4-1.7,0.3h-5.5
			c-1.2,0.1-2.3,0.4-3.8,0.2c0.2-1,1.6-0.7,2.3-1.2c9.3,0,17.5-1,26.5-1.3c0.4,0.1,0.4-0.2,0.8-0.3h1.3
			C97.4,100.5,95.5,100.7,93.3,100.5z"/>
	</g>
</g>
</svg>
