<?xml version="1.0" encoding="utf-8"?>
<!-- Generator: Adobe Illustrator 22.1.0, SVG Export Plug-In . SVG Version: 6.00 Build 0)  -->
<svg version="1.1" id="Слой_1" xmlns="http://www.w3.org/2000/svg" xmlns:xlink="http://www.w3.org/1999/xlink" x="0px" y="0px"
	 viewBox="0 0 100 125" style="enable-background:new 0 0 100 125;" xml:space="preserve">
<style type="text/css">
	.st0{fill:#1FBA0A;}
</style>
<g>
	<path class="st0" d="M48.9,56.8H30.4c-4.7,0-9.3,1-13.6,2.9l-0.2,0.1c-2.4,1.1-3.9,3.2-4.2,5.8c-0.6,0.1-1.4,0-1.9-0.3
		C10.1,65,9.8,64.6,9.6,64c-0.1-0.5-0.6-0.9-1.2-0.8c-0.5,0.1-0.9,0.6-0.8,1.2c0.3,1.2,0.9,2.1,1.8,2.6c0.8,0.5,1.7,0.6,2.5,0.6
		c0.2,0,0.3,0,0.5,0c0.4,2.2,1.8,4.2,3.9,5.2c4.5,2.2,9.5,3.3,14.5,3.3h19.1c0.7,0,1.4-0.5,1.5-1.3v-0.1c0.9-5.6,0.5-11.5-1.2-16.9
		C50.1,57.2,49.6,56.8,48.9,56.8z M30.9,73.2c-4.5,0-9.1-1.1-13.2-3c-1.5-0.7-2.4-2.2-2.3-3.8c0-1.7,0.9-3.1,2.5-3.7l0.2-0.1
		C22,60.9,26.2,60,30.4,60h17.4c0.9,3.2,1.3,6.4,1.3,9.7l0,0H30.3c-6.5,0-9.7-2.3-9.8-2.3c-0.4-0.3-1.1-0.2-1.4,0.2
		s-0.2,1.1,0.2,1.4c0.1,0.1,3.7,2.7,11,2.7H49c0,0.5-0.1,1.1-0.2,1.6L30.9,73.2L30.9,73.2z"/>
	<path class="st0" d="M90.1,69.1c-0.9-1.7-3.6-1.8-6.3-0.3l0,0c0.5-1.6,0.5-3-0.6-3.8c-1.2-0.8-2.7-0.2-4.1,1.1
		c0.4-1.6,0.2-3-0.9-3.7s-2.4-0.4-3.8,0.4c0.1-1.3-0.3-2.4-1.2-3c-1-0.7-2.2-0.5-3.5,0.1c-0.1-1.2-0.7-1.9-1.3-2.3
		c-2.6-1.8-6.8,1.7-9.6,5.7c-2.8,4-4.5,9.2-1.9,11c0.4,0.3,0.9,0.5,1.6,0.5c0.9,0,2-0.3,3.3-1.3c0.1,0,0.1-0.1,0.2-0.1
		c0.2,0.6,0.6,1,0.9,1.2c0.5,0.3,1,0.5,1.5,0.5c1.3,0,2.8-0.8,4.1-2.1c0.1,0.7,0.4,1.3,1,1.7c0.3,0.2,0.8,0.4,1.4,0.4
		c0.7,0,1.5-0.2,2.6-1c0.6-0.4,1.2-1,1.9-1.7c-0.1,1.4,0.5,2.1,0.9,2.4c0.3,0.2,0.7,0.4,1.2,0.4c0.6,0,1.3-0.2,2.1-0.8
		c0.3-0.2,0.6-0.4,0.9-0.7c0.1,0.2,0.1,0.4,0.2,0.6c0.5,0.9,1.4,1.3,2.7,1.3c0.1,0,0.2,0,0.3,0c1-0.1,2.2-0.4,3.2-1.1
		C89.8,73.1,91,70.8,90.1,69.1z M58.6,71.8c-0.2-0.7,0.3-3.3,2.6-6.8c2.3-3.5,4.7-4.8,5.4-4.9c0.2,0.7-0.3,3.3-2.6,6.8
		C61.7,70.4,59.3,71.8,58.6,71.8z M64.8,72c0-0.3,0-0.7,0.2-1.3c0.5-0.6,1.1-1.3,1.5-2c1-1.5,1.8-3,2.4-4.4c1.1-1.1,2-1.7,2.5-1.8
		c0.1,0.8-0.4,2.9-2.3,5.5C67.3,70.6,65.5,71.8,64.8,72z M74.5,69c-1.1,1.6-2.2,2.6-2.9,2.9c0.1-0.8,0.6-2.1,1.7-3.7
		s2.2-2.6,2.9-2.9C76,66,75.6,67.4,74.5,69z M78.5,71.9c0.2-0.5,0.5-1.2,1.1-2.1c0.6-0.8,1.1-1.4,1.5-1.8c-0.2,0.5-0.5,1.2-1.1,2.1
		C79.4,70.9,78.9,71.5,78.5,71.9z M85.6,72c-0.7,0.4-1.4,0.6-1.8,0.7c0.3-0.3,0.7-0.8,1.5-1.2s1.4-0.6,1.8-0.7
		C86.8,71.1,86.3,71.6,85.6,72z"/>
	<path class="st0" d="M27.9,48.4c0.1,0,0.2,0,0.2,0l12.8-2V49c0,0.5,0.2,0.9,0.6,1.2c0.3,0.2,0.6,0.3,0.9,0.3c0.1,0,0.2,0,0.3,0
		l7.8-1.8c6.3-1.4,11.9-4.2,16.3-8.1c6.6-6,10.1-13.9,10.1-22.9c0-0.5-0.3-1-0.7-1.3c-0.4-0.3-1-0.3-1.4-0.1l-33,14l0,0l0,0
		l-14.5,6.5c-0.5,0.2-0.9,0.8-0.9,1.4V47c0,0.4,0.2,0.9,0.5,1.1C27.2,48.3,27.5,48.4,27.9,48.4z M64.8,38.3
		c-3.4,3.1-7.6,5.3-12.2,6.7l1.8-4.4c0.1-0.3,0.4-0.6,0.7-0.7c0.3-0.1,0.7-0.1,1,0l0.1,0.1c0.9,0.4,1.9,0.4,2.8,0s1.5-1.2,1.8-2.1
		l0.5-1.8c0.2-0.7,0.8-1.1,1.5-0.9l1,0.2c1.5,0.3,3-0.5,3.6-1.9c0.1-0.3,0.4-0.6,0.7-0.7c0.3-0.1,0.7-0.1,1,0.1l0.3,0.2
		C68,35,66.5,36.7,64.8,38.3z M70.3,31.4l-0.5-0.3c-0.8-0.4-1.7-0.5-2.6-0.2c-0.8,0.3-1.5,0.9-1.9,1.7c-0.2,0.5-0.8,0.8-1.4,0.7
		l-1-0.2c-1.7-0.4-3.4,0.7-3.8,2.4l-0.5,1.8c-0.1,0.4-0.3,0.7-0.7,0.8c-0.3,0.2-0.7,0.2-1.1,0L56.7,38c-0.8-0.4-1.7-0.4-2.6-0.1
		c-0.8,0.3-1.5,1-1.8,1.8l-2.4,5.8c-0.1,0-0.2,0-0.2,0.1l0,0L43.8,47v-2.4c0,0,0,0,0-0.1v-12l29.9-12.7
		C73.5,24.1,72.3,27.9,70.3,31.4z M29.4,39.1l11.5-5.2v9.4l-11.5,1.8C29.4,45.1,29.4,39.1,29.4,39.1z"/>
</g>
</svg>
