<?xml version="1.0" encoding="utf-8"?>
<!-- Generator: Adobe Illustrator 22.1.0, SVG Export Plug-In . SVG Version: 6.00 Build 0)  -->
<svg version="1.1" id="Capa_1" xmlns="http://www.w3.org/2000/svg" xmlns:xlink="http://www.w3.org/1999/xlink" x="0px" y="0px"
	 viewBox="0 0 100 100" style="enable-background:new 0 0 100 100;" xml:space="preserve">
<style type="text/css">
	.st0{fill:#1FBA0A;}
</style>
<g id="thumbs-up_1_">
	<g>
		<path class="st0" d="M97.7,41c-1.2-1.9-3-3.2-4.3-4.9c-2.3-0.6-4.2-1.6-6.6-2c-2.6-0.3-5.5-0.4-8-0.9h-5.2
			c0.5-0.9,1.4-1.4,1.7-2.6c1-0.5,1-2,2-2.6c-0.2-1.2,0.2-1.9,0.3-2.9c1-1,1.4-2.4,2.3-3.4c0.6-1.4,2-2,2.3-3.7
			c0-3.7-0.2-7.7,0.6-10.6c-0.6-1.1-1.2-2.2-1.1-4c-1.8-0.9-2.6-2.8-4.6-3.4h-3.4c-3.3,1.2-4.5,4.6-8,5.7c-3.7,7.3-10.1,12-16,17.2
			c-2.8,2.8-5.5,5.5-8.6,8c-1.3,1.5-2.9,2.6-4.6,3.7c-1.7,1.2-3.2,2.6-5.2,3.4c0-1.9-1.2-2.6-2-3.7c-3.4-0.9-6.4-2.2-10.6-2.3
			c-2.6,0-4.7,0.5-7.4,0.3c-0.4,0.4-1.3,0.5-2,0.6c-0.4,0.5-1,0.7-1.7,0.9c-0.5,0.8-1.2,1.5-2,2C3,40.9,3.2,48.4,2,54.7
			c-0.3,11.3-0.3,23-0.3,34.7c0.5,0.7,0.6,1.7,0.9,2.6c0.6,0.6,0.8,1.7,1.4,2.3c1.7,0.7,3.6,1.3,6,1.4c3.3,1.8,8.7,1.4,13.8,1.4
			c1.3-0.4,2.1-1.1,3.4-1.4c1.8,0.2,2.1-1.2,3.2-1.7c0.3,1.5,1.4,2.1,2.3,2.9c1.1-1.5,2.9,0.6,4.3,0.6c1.2,0.8,3.4,0.6,4.9,1.1
			c5.6,0.5,11.1,1.2,16.9,1.4c2.5-0.5,5.7-0.2,8.6-0.3c4.1-0.6,7.7-1.6,11.5-2.6c0.6-0.5,1.2-0.9,2-1.1c2.3-2.3,4.4-5.2,4.9-9.5
			c0.3-2.6-0.2-5.4,0-8.6c1.5-1.4,3.4-2.5,4.9-4c0.2-1,0.9-1.6,1.4-2.3c0.8-4.4,1.5-9,2-13.8c1.9-2.2,3.6-4.6,4.3-8
			C98.3,46.7,98.4,43.4,97.7,41z M9.2,45.8c0.1-1-0.2-2.3,0.3-2.9c-0.1-2.1,0.6-3.4,1.1-4.9c0.3,0,0.2,0.3,0.3,0.6
			c-0.6,3.2-1.4,6.2-1.7,9.7C8.6,48.1,8.8,46.2,9.2,45.8z M26.4,45c-0.5,0.5-0.6,1.5-1.1,2c-0.8,4.3-1.4,8.7-2,13.2
			c0,2.7-0.2,3.8,0,6.3c-0.7,4,0.3,8.1,0.3,12.3c0.6,1.5,1.1,3.1,2,4.3c0.2,2.3,0.8,4.3,1.1,6.6c-3.1,0.2-7.3,0.6-10.3,0
			c0-0.9,0.7-2.1,0-2.9c-2.1-0.4-2.1,1.1-3.7,1.1c0.4-1.8,1.6-2.8,2-4.6c0.7-1.1,2-3.1,1.4-4.6c-1.2-0.5-2.7,0.9-3.4,1.7
			c-1.3,0.3-1.7,2.8-2.9,2.3v-4.3c0.6-0.7,0.7-2,1.4-2.6c0-1.2,1.1-1.4,1.1-2.6c0.7-0.6,1.7-0.9,2-2c0-0.7-0.5-0.9-0.6-1.4
			c-0.1-0.7-1.3-0.3-1.4-0.9c-0.9-0.2-1,0.3-1.7,0.3c-0.4-0.2-0.7,1.1-0.9,0.3c1.4-10.1-0.6-23.5,3.4-30.9c0.2-0.1,0.3-0.3,0.6-0.3
			c0.2-0.1,0.3-0.3,0.6-0.3c1.3,0.5,2.5,0,3.4,0.3c0.8,0.2,1.5,0.5,2,0.9c3.1-0.1,4.5,1.4,7.4,1.4C26.7,41.9,26.6,43.5,26.4,45z
			 M91.4,50.7c-0.8,1.2-1.6,2.4-2.6,3.4c-0.4,1-0.6,2.1-1.1,2.9c-0.3,4.6-0.8,9.1-2,12.9c-1.6,1.3-3.3,2.6-5.2,3.7
			c-0.3,1.2-1,2.1-0.9,3.7c-0.1,1.1,0.6,1.5,0.9,2.3c-0.5,3.5-0.6,7.4-2.3,9.7c-1.7,1.6-4.6,2-7.4,2.6c-1.2-0.7-3-0.8-4.9-0.9
			c-1.1,0.2,0.3-1.5-0.9-1.7c-2.1-0.2-1.8,1.8-3.4,2c-1.6,0.1-2.4-0.5-4-0.3c0-1.8,1.6-2,1.4-4c-0.1-0.4-0.5-0.5-0.6-0.9
			c-2.9,0.1-3.9,2-5.4,3.4c-0.9-0.6-2.7-0.2-4-0.3c0.1-1.2,1-2.2,0.3-3.4c-3.5-0.3-3.7,2.6-6,3.4c0.2-1.5,1.8-3.9,0-4.9
			C41.7,84.3,42,86,41,86.2c-0.7,0.6-0.8,1.9-2,2c-0.6-0.5-1.2-1.1-2-1.4c0.9-1.8,2.2-3.4,3.2-5.2c0.7-1.5,2.7-3.7,1.4-5.4
			C39,76.1,38,77.5,37,78.8c-0.7,0.5-1.3,1-1.7,1.7c-0.6,0.5-0.7,1.6-1.7,1.7c-0.7-2.6,1.9-3.7,2.3-6c0.9-0.5,0.8-2.1,1.7-2.6
			c0.2-1.2,1.2-2,0.6-3.2c-2.6-0.2-3,1.8-4.6,2.6c-0.2,0.9-1,1.3-1.4,2c-0.6,0.5-0.7,1.6-1.7,1.7v-5.4c0.9-2.2,2.1-4.3,3.4-6
			c0.9-2.2,2.9-3.2,3.2-6c-1-0.5-2.4,0.8-3.4,1.1c-1.1,0.7-1.7,1.7-3.2,2c0.5-1.1,0.2-2.8,0.3-4.3c0.9-1,1.7-2.1,2.6-3.2
			c0.4-0.6,0.8-1.1,1.1-1.7c0.8-0.1,1.2-0.5,1.1-1.4c-0.3-0.7-1.3-0.6-2.3-0.6c-0.6,0.3-0.8,1.1-1.7,1.1c0.4-2.7,1-5.2,1.4-7.7
			c5.7-3.2,10.8-7,15.5-11.2c0.3-1.1,1.2-1.7,1.4-2.9c2.9-1.9,5.5-4,8-6.3c2.8-2,5.2-4.3,7.5-6.9c0.3-0.2,0.8-0.4,1.4-0.3
			c-0.2-0.9,0.3-1,0.3-1.7c2-1.5,3.1-4,5.2-5.4c-0.1-1,0.1-1.6,0.3-2.3c0.5-0.3,0.7-0.8,1.7-0.6c0.3-1.4-0.7-2.3,0-3.2
			c0.5-0.1,0.5,0.3,0.9,0.3c1.2,1.6,1.8,3.8,2,6.3c0.2,1,0.8,1.5,0.9,2.6c-0.7,4.7-3.2,7.7-5.4,10.9c-0.9,1.9-2.1,3.5-3.4,4.9
			c-0.8,1.9-2.7,2.7-3.7,4.3c-1.3,0.5-2.3,1.3-3.4,2c-1.2,0.5-2.4,1-2.6,2.6c-0.3,1.9,1.4,1.9,2.3,2.6c2.2,0.2,3.7-0.3,5.2-0.9
			c3.8,0.6,8.6,0.2,12.9,0.3c2,0.3,4.1,0.5,6.3,0.6c0.4,0.4,1.3,0.5,2,0.6c0.4,0.4,1,0.5,1.7,0.6c0.5,0.8,1.4,1.3,2,2
			C91.6,46,91.9,48.7,91.4,50.7z M18.9,41c-2.6-0.5-5-0.2-6.6,1.1c-0.5,1.9-1.1,3.7-1.1,6c0.1,0.7,0.5,1.1,0.3,2
			c0.6,0.6,0.8,1.7,1.4,2.3c0.6,0.6,1.5,1,2.3,1.4c3.5,0,5.4-1.5,6.6-3.7c-0.1-1,0.1-1.6,0.3-2.3c-0.2-0.7-0.4-1.5-0.3-2.6
			c-0.7-0.5-0.4-1.9-1.1-2.3C20.3,42.1,19.5,41.7,18.9,41z M16.9,48.4c-0.8-0.3-0.5-1.8-0.6-2.9C17.1,45.9,17.2,47.9,16.9,48.4z"/>
	</g>
</g>
</svg>
