<?xml version="1.0" encoding="utf-8"?>
<!-- Generator: Adobe Illustrator 22.1.0, SVG Export Plug-In . SVG Version: 6.00 Build 0)  -->
<svg version="1.1" id="Capa_1" xmlns="http://www.w3.org/2000/svg" xmlns:xlink="http://www.w3.org/1999/xlink" x="0px" y="0px"
	 viewBox="0 0 46.5 46.5" style="enable-background:new 0 0 46.5 46.5;" xml:space="preserve">
<style type="text/css">
	.st0{fill:#1FBA0A;}
</style>
<g>
	<path class="st0" d="M14.5,41.7c-1.9-0.6-3.5-2-5.1-3.6c-2-2.1-4.5-3.7-6.8-5.6c-1.7-1.3-3-2.6-2.5-5.3c0.5-2.8,0-5.8-0.2-8.7
		c-0.2-2.5,1-4.1,3.1-4.9c3.7-1.3,7.4-2.4,11.2-3.6c5.4-1.6,10.8-3.2,16.2-4.9c1.6-0.5,3-0.5,4.5,0.5c2.8,1.9,5.8,3.7,8.8,5.3
		c1.9,1,2.5,2.4,2.3,4.4c-0.5,4.4-0.6,8.8,0.3,13.2c0.4,1.9-0.9,2.5-2.3,3c-3.3,1.2-6.7,2.3-10,3.5C27.7,37.3,21.4,39.4,14.5,41.7z
		 M15.8,12.4c2.3,1.8,4,3.3,5.7,4.6c7.1,5.4,6.1,4.4,6.4,12.7c0,1.4,0.3,2.7,0.5,4.4c1.8-0.6,3.2-1.1,4.7-1.7
		c0.2-3.9,0.5-7.7,0.6-11.5c0-0.9-0.4-2.1-1.1-2.7c-2.5-2.4-5.2-4.7-7.9-7c-0.5-0.4-1.3-0.8-1.9-0.6C20.6,11.1,18.5,11.7,15.8,12.4z
		 M4.7,15.9c2.9,3,5.6,5.7,8.3,8.4c0.4,0.3,1.2,0.5,1.7,0.4c2.8-1,5.5-2.1,8.7-3.3c-3.2-2.5-6-4.8-8.8-7c-0.5-0.4-1.3-0.8-1.9-0.7
		C10,14.3,7.4,15.1,4.7,15.9z M26.4,9.8c2.7,2.4,5,4.4,7.4,6.4c0.6,0.5,1.7,0.9,2.5,0.7c2.2-0.5,4.3-1.4,7-2.3
		c-2.9-2.5-5.6-4.2-8.5-5.7c-1.7-0.9-3.2-1-4.9-0.4C29,8.8,28,9.1,26.4,9.8z M14.5,31.8c0.3,0.2,0.5,0.3,0.6,0.3
		c3.2-1,6.5-2.1,9.7-3.2c0.3-0.1,0.4-0.9,0.9-2.1c-3.9,1.3-7.2,2.4-10.5,3.5C14.9,30.4,14.8,31.3,14.5,31.8z M15,38.7
		c3.4-1.1,6.7-2.2,9.9-3.4c0.5-0.2,0.7-1.1,1.2-2.1C15.2,36.8,15.2,36.8,15,38.7z M15.6,28c3.2-1,6.5-1.9,9.7-2.9
		C22.8,24.5,19.1,25.6,15.6,28z M35.5,31.6c2.8-0.7,5.3-1.5,8-3.3C38.3,28.9,36.3,29.7,35.5,31.6z M42.9,18.6
		c-0.1-0.2-0.2-0.5-0.3-0.7c-1.2,0.4-2.5,0.6-3.5,1.2c-1,0.6-2.9,0-3.2,2.2C38.6,21,40.9,20.2,42.9,18.6z M3.2,21.7
		c-0.2,0.2-0.4,0.5-0.6,0.7c2,2.2,4.1,4.4,6.6,6c0.1-0.2,0.3-0.3,0.4-0.5C7.5,25.8,5.3,23.7,3.2,21.7z M42.9,21.5
		c-2.5,1-4.7,1.6-6.6,3C39.8,24.5,42.2,23.5,42.9,21.5z M21,32.7c-4.5,0.4-5.2,0.7-6,2.3C17.1,34.2,19,33.5,21,32.7z M8.6,24.2
		c0.1-0.1,0.2-0.2,0.3-0.3c-1.2-1.2-2.4-2.4-3.9-3.8C6.3,21.6,7.5,22.9,8.6,24.2z M42.7,25.8c0-0.1-0.1-0.3-0.1-0.4
		c-0.8,0.2-1.6,0.5-2.4,0.7c-0.7,0.2-1.4,0.5-2.2,0.8c0,0.1,0.1,0.2,0.1,0.4C39.6,26.8,41.1,26.3,42.7,25.8z M3.7,28.3
		c-0.2,0.2-0.4,0.4-0.6,0.6c0.9,0.8,1.8,1.5,2.7,2.3C5.9,31.1,6,31,6.1,30.9C5.3,30,4.5,29.2,3.7,28.3z M3.2,25.4
		c-0.2,0.2-0.3,0.3-0.5,0.5c0.6,0.4,1.1,0.7,1.7,1.1c0.1-0.1,0.2-0.3,0.3-0.4C4.2,26.2,3.7,25.8,3.2,25.4z M10.8,33.3
		c0.1-0.2,0.3-0.3,0.4-0.5c-0.4-0.3-0.9-0.6-1.3-0.9c-0.1,0.1-0.1,0.2-0.2,0.3C10,32.5,10.4,32.9,10.8,33.3z"/>
</g>
</svg>
