<?xml version="1.0" encoding="utf-8"?>
<!-- Generator: Adobe Illustrator 22.1.0, SVG Export Plug-In . SVG Version: 6.00 Build 0)  -->
<svg version="1.1" id="Capa_1" xmlns="http://www.w3.org/2000/svg" xmlns:xlink="http://www.w3.org/1999/xlink" x="0px" y="0px"
	 viewBox="0 0 120 120" style="enable-background:new 0 0 120 120;" xml:space="preserve">
<style type="text/css">
	.st0{fill:#1FBA0A;}
</style>
<g id="_x30_406-tentacle">
	<g>
		<path class="st0" d="M119.6,74.6c-0.7-1.2-1.2-2.5-2.3-3.2c-0.8-1.1-2-1.9-2.8-3c-2-1.8-4-3.5-6.9-4.4c-0.2-0.5-1.3,0.1-1.4-0.5
			c-4.8-0.2-8.5,0.7-12.6,1.1h-9.4c-3.1-0.5-5.8-1.4-8.3-2.5c-1.3-1.2-2.9-2.1-3.9-3.7c-1.3-1.3-2.1-3.1-2.8-5
			c0-2.9,0.1-6.8-0.2-8.9c-0.1-0.4,0-0.8,0-1.1c-0.1-2.1-0.1-4.9-0.5-6.2c0-0.1,0-0.3,0-0.5c-0.2-1.3-0.6-3-0.7-3.9
			c0-0.7-0.4-1-0.5-1.6c0-0.3-0.2-0.3-0.2-0.5c-0.7-2.1-1.3-4.2-2.3-6c-1.1-1.6-2-3.5-3.4-4.8c-1.1-1.7-2.5-3-4.1-4.1
			c-2.8-2.7-6.2-5-10.6-6.2c-0.5-0.5-1.5-0.2-2.1,0c-0.9,0.1-1.2-0.5-2.1-0.5c-1.3-0.4-3.1-0.4-4.6-0.7h-6.4c-0.3,0-0.3,0.3-0.7,0.2
			c-1,0-2.1-0.1-2.8,0.2c-0.4,0.1-1.3-0.3-1.4,0.2c-0.4,0.1-1.3-0.3-1.4,0.2c-1.8,0.3-3.5,0.6-4.8,1.4c-3.4,0.8-5.7,2.8-8.5,4.1
			c-0.7,0.8-1.6,1.4-2.5,2.1c-0.5,1.1-2,1.2-2.3,2.5c-1.7,1.4-3.2,3.1-4.4,5c-0.5,1.5-1,3-1.1,4.8c-0.7,1.3-1.1,2.8-1.4,4.6
			c-0.9,4-0.4,9.2,0.2,13.1c0.5,0.6,0.3,2,0.9,2.5c0,1.2,0.7,1.7,0.9,2.8c0.7,1.6,1.8,3,2.5,4.6c1,0.7,1.5,1.9,2.3,2.8
			c1.1,0.7,1.7,1.8,2.8,2.5c0.5,1.1,1.3,2.1,2.5,2.5c0.9,0.8,2,1.6,3.4,1.8c2.1-0.1,3.9-0.3,5-1.4c0.8-1.9,0.6-5.3-0.7-6.4
			c-0.5-0.8-1.2-1.5-1.8-2.3c-0.9-0.4-1.4-1.4-1.8-2.3c-1.5-2.6-2.3-6.7-1.6-10.8c0.4-0.7,0.8-1.4,1.1-2.1c0.2-0.4,0.2-0.8,0.5-1.1
			c0.3-0.4,0.9-0.8,1.1-1.1c0.2-0.3,0.3-0.3,0.5-0.5c1.9-1.8,4.2-2.6,8-2.3c0.2,0.5,1.2,0.2,1.4,0.7c0.8-0.1,0.8,0.7,1.6,0.7
			c0.8,0.7,1.5,1.4,2.3,2.1c1.3,1.6,2.4,3.4,3.2,5.5c0,5.4,0.6,10.3,0.7,15.6c1.2,7,2.6,13.9,4.8,20c-0.1,1.7-0.7,2.8-0.5,4.8
			c0.6,1.1,0.2,3.3,1.1,4.1c0.8,0.4,1.4,0.9,2.3,1.1c0.9,0.4,2.4,0,3.2,0.5c3.9,4.4,7.8,8.9,13.5,11.5c0.2,0.3,0.6,0.5,0.9,0.7
			c0.1,0.5,0.2,1,0.7,1.1c0.6,0.7,1.3,1.1,2.3,1.4c1.6,0.6,3.6,0.4,5.3,0c0.2,0.4,1,0.2,1.4,0.5c0.5,0.1,0.9,0.4,1.6,0.2
			c0.2,0.4,1,0.2,1.4,0.5c0.7-0.1,1,0.4,1.8,0.2c2,0.5,4.3,0.7,6.9,0.7c1.1,0.5,2.1,1.1,3.2,1.6c0.3,0.5,1.1,0.4,1.4,0.9
			c0.6,0.2,1.3,0.4,1.8,0.7c4.3,0.4,7.1-0.7,10.1-1.6c2.8-1.8,5.5-3.9,7.8-6.2c2.7-2.1,4.9-4.6,7.1-7.1
			C117.7,91.4,121.3,83.8,119.6,74.6z M15.8,60.2c0.4,0.3,0.8,0.6,1.1,0.9c0.6,0,0.6,0.6,0.9,0.9c-0.2,1-1.6,0.5-2.1,0
			c-0.8-0.4-1.1-1.2-1.8-1.6c-1-1.3-2.3-2.2-3.2-3.4c0.3-0.9,1-1.4,1.1-2.5c0.3,0,0.4,0,0.5,0.2C13.3,56.8,14.6,58.4,15.8,60.2z
			 M17.2,34c-0.2,0.9-0.7,1.6-1.6,1.8c-3.2,0.3-2.3-5,0.2-4.8c0.5,0.2,0.5,1,0.9,1.4C17,32.9,17.4,33.2,17.2,34z M30.1,30.6
			c-0.4-0.8-0.8-1.5-0.7-2.8c0.6-1.1,2.3-1.6,3.4-0.9c0.6,0.3,1.1,1.8,0.9,3C32.8,30.8,31.3,31.3,30.1,30.6z M38.8,64.3
			c-0.5-0.4-0.9-0.8-1.4-1.1c0-0.3,0-0.7-0.2-0.7C37,61,37.6,60.1,37.9,59c0.7-0.3,1.4-0.6,2.1-0.9c2.1-0.1,3.2,0.6,4.1,1.6
			c0.3,2.2-1,2.8-1.6,4.1C41.5,64.3,40.3,64.4,38.8,64.3z M40.2,48.7c-0.8,0.2-0.8-0.4-0.9-0.9C39.8,47.8,40.1,48.1,40.2,48.7z
			 M39.9,44.6c0.2-1.1,0.7-1.8,1.4-2.3c1.2-0.1,3.2-0.6,3.9,0.2c0.2,1.4-0.3,2.1-0.9,2.8c-1,0.1-0.8,1.5-2.1,1.4
			C40.8,46.6,40.4,45.6,39.9,44.6z M49.6,83.8c0,1.3-1.2,1.4-1.1,2.8c-0.4,0.2-0.7,0.5-0.9,0.9c-0.3,0.3-0.9,0.4-1.1,0.7
			c-2.2,0.1-3.4-0.7-4.1-2.1c-0.1-2.3,0.9-3.4,1.8-4.6c1.8-0.1,4-1.4,5.3,0C49.6,82.1,49.6,82.9,49.6,83.8z M68.6,101.7
			c-0.3,0.9-0.9,1.4-1.4,2.1c-0.7-0.1-1,0.4-1.8,0.2c-1.3-0.2-1.8-1.3-2.3-2.3c-0.2-3.8,1.1-6.1,4.8-6c0.7,0.7,1,1.7,1.1,3
			C69.3,100.1,68.4,100.3,68.6,101.7z M87.4,89.6c-0.9-0.1-0.6-1.4-1.1-1.8c-0.4-0.9-1.3-1.5-1.8-2.3c-0.7-0.2-1.4-0.5-1.8-0.9
			c-1.4,0.1-3.1-0.2-4.1,0.2c-2.6,1.1-3.8,3.5-3.4,7.6c0.3,2.3,1.4,3.8,3,4.8c2,0.5,3.5-0.5,5.5,0c1,0.1,1.3-0.6,2.1-0.7
			c-0.2,2.7-0.1,4.4,0,7.1c-0.7,0.1-0.8-0.4-1.6-0.2c-0.1-1.9,0.2-4.1-1.4-4.4c-1.7,0.1-0.8,2.7-1.4,3.9c-0.7,0.1-1.1-0.2-1.6-0.2
			c0.1-0.8,0.3-1.5,0.2-2.5c0.1-1.1-0.4-1.4-0.9-1.8c-0.6,0-0.7,0.4-1.1,0.5c-0.4,0.1,0,1.1-0.5,1.1c0,0.3,0,0.6,0,0.9
			c0,0.3-0.2,0.3-0.2,0.5c-0.1,0.3,0.2,1.1-0.5,0.9c-0.3-2,1.2-5-1.1-5.3c-1.1,0-0.8,1.5-1.1,2.3c-0.3,0.9,0.2,2.5-1.1,2.3
			c-0.9,0.1-0.7-0.9-0.7-1.6v-2.3c-0.2-1.2-0.6-2.3-1.1-3.2c-0.3-0.7-1.1-0.9-1.4-1.6c-0.6-0.2-1.2-0.4-1.6-0.7h-1.8
			c-0.9,0.2-1.7,0.5-2.5,0.7c-0.6,0.4-1.1,0.9-1.8,1.1c-0.3,0.6-0.8,1.1-1.1,1.6c-0.6,0.3-0.3,1.4-1.4,1.1c-1.4-1.6,2.2-4.6,0-6.2
			c-1.3-0.1-1.2,1.1-1.8,1.6c0.1,0.7-0.3,0.9-0.5,1.4c-0.1,0.4-0.1,1-0.7,0.9c-1-1,0.2-2.5,0.7-3.4c0.2-1.1,1.2-3.4-0.5-3.7
			c-2.1,0.2-1.7,2.9-2.8,4.1c-0.7-0.3,0.2-1,0.2-1.4c0.1-0.5,0.3-0.9,0.5-1.4c0.3-0.9,0.9-2,0.5-3c-1.3-0.1-1.1,1.3-1.8,1.8
			c-0.4,0.8-0.4,2.1-1.6,2.1c-0.1-0.7-0.8-0.9,0-1.4c0.2-0.5,0.5-1,0.9-1.4c0.1-0.7,0.2-1.3,0.5-1.8c0-0.8,0-1.7,0-2.5
			c-0.5-2.4-1.4-3.9-3.7-4.8c-1-0.4-3.2-0.3-5,0c-0.3-2.2,1.5-2.3,1.8-3.9c-0.2-0.7-0.6-1.1-1.6-0.9c-0.6,0-1.1,1.2-1.4,0.7
			c-1.2-1.7,1-2.6,1.1-4.4c0-0.2-0.2-0.2-0.2-0.5c0-0.7-1-0.4-1.6-0.5c-0.3,0.5-0.6,0.4-0.9,0c-0.3-1.2,0.4-0.9,0.9-1.1
			c0.4-0.2,1-0.4,1.4-0.5c0.9-0.3,1.3-1.1,2.3-1.4c0.6-1.1,1.5-1.9,1.6-3.4c0-1.6-0.5-2.9-1.1-3.9c-0.4-0.6-1-1.2-1.6-1.6
			c-0.5-0.5-1.4-0.7-2.1-1.1c-0.7,0-1.7,0.2-2.1-0.2c-0.2,0.5-1.4,0.2-1.1-0.5c1.6-0.2,4,0.5,4.6-0.7c-0.1-1.1-1.5-1-1.6-2.1
			c-0.4-0.4,0.2-0.8,0.5-1.1c0.1-0.7-0.5-0.7-0.5-1.4c0.6-0.2,1.4-0.3,2.1-0.5c0.9-0.4,1.5-1.1,2.3-1.6c0-0.6,0.4-0.8,0.7-1.1
			c0-0.3,0-0.7,0.2-0.7c0.4-4-1.2-6.2-4.6-6.4c-1.1,0-1.8,0.3-2.8,0.5c-0.6,0.2-0.9,0.6-1.6,0.7c-0.3,0.4-0.5,0.9-1.1,0.9
			c-1.4-2.7-3-5.1-5.5-6.7c0.1-0.7,1.3-0.4,1.8-0.7c1.2-0.6,1.9-1.6,2.5-2.8c1.4-6-6.4-9.1-8.9-5c-0.3,1.3,0.1,1.9,0,3.4
			c0.3,1.2,1.1,1.8,1.4,3c-1.2-0.1-2-0.6-3.2-0.7c-0.1-1.8,0.1-3.9-1.1-4.6c-2.3-0.2-0.7,3.6-1.8,4.6c-1.2,0.1-0.5-1.8-0.7-2.8
			c0-1,0.2-2.4-0.7-2.5c-2,0.5-0.8,4.1-1.6,5.7c-0.9,0-0.5-1.1-1.1-1.4c-0.1-0.6-0.7-0.9-0.9-1.4c-0.9-0.5-2.2-0.5-3.7-0.5
			c-1.6,0.5-2.9,2.3-2.8,4.4c0.1,1.5,0.9,2.7,2.1,3.2c-1.3,2.1-2.7,4.2-3.2,7.1c-0.2,3.9,0.4,6.9,1.1,9.9c-1.2-0.8-2,0.5-2.5,1.1
			c-0.8,0.2-0.4-0.8-0.9-0.9C8,53.2,8,52.6,7.6,52.4c0.1-1.1,1.5-2,0.7-3.2c-0.6-0.9-1.1,0.1-2.1,0c0-2.5,2.3-2.8,2.3-5.3
			c0.1-0.5-0.7-0.3-0.7-0.7c-1.6-0.2-1.6,1.2-2.8,1.4C4.9,44,6,43.6,6,43c0-0.3,0.7-1.2,1.1-1.6c0.4-1.4,1.7-1.8,2.1-3.2
			c-0.2-0.6-0.6-1-1.1-1.1c-1.7,0.1-2.2,1.3-3,2.3C4.5,39,5.1,38,5.5,37.9c0.3-0.5,0.6-0.9,0.9-1.4c0.7-0.9,1.7-1.4,1.6-3
			c-0.6-1.3-1.8-0.3-2.8,0c1.1-4.4,3.5-7.7,5.3-11.5c2.6-2.1,5.3-4.1,8.3-5.7c3.2-1.4,6.7-2.5,10.8-3c2.7-0.2,5.5-0.3,8.5-0.2
			c4,0.5,8,1,11.2,2.3c1.1,1.1,2.5,1.9,3.7,3c1.3,0.9,2.2,2.3,3.4,3.2c4.4,4.6,6.8,11.1,7.6,19.3V51c-0.2,0.6,0.3,0.6,0.2,1.1v4.1
			c0.3,2.5,0.7,4.9,1.8,6.7c1.3,1.7,3.1,2.8,5.3,3.7c0.9,0.7,1.9,1.2,2.8,1.8c1.1,0.4,2.3,0.6,3.2,1.1c0.6,0,1.1,0,1.4,0.2h2.8
			c0.4,0.8,1.1,1.4,1.1,2.5c0.7,0-0.2,1.4,0.5,1.4c0,0.6,0.4,0.7,0.7,0.9h1.1c1.6-0.8,0.5-3.1,0.2-4.6c3.7-0.7,0.7,5.3,3.7,5.3
			c2.4-0.2,1-3.4,0.9-5c0.4,0,0.9,0.1,0.9-0.2c2.1,0.4,0.2,4.9,2.5,5c2.3-0.2,1.1-3.4,0.9-5c0.9,0.2,1.1-0.3,1.8-0.2
			c0.6,0.9,0.6,2.4,1.8,2.5c1.6,0,1.4-1.7,1.1-3c3.1-0.1,7.2-1.9,9.6,0c-0.9,0.8-3,0.5-3.9,1.4c-1.4,0.2-2.6,0.8-3.4,1.6
			c-2.4,1-4.2,2.7-6,4.4C91.8,80.2,89,84.3,87.4,89.6z M81.7,95.1c-1.5,0.2-2-0.6-3.2-0.7c-1-1.1-1.6-3.4-0.7-5
			c1.1-0.8,2.8-1.5,4.1-0.9c0.1,0,1,0.9,1.1,1.1c0.3,0.5,0.3,1.5,0.5,2.1c-0.1,0.9-0.3,1.6-0.9,1.8C82.7,94.4,82.1,94.7,81.7,95.1z
			 M116.1,82.4c-0.1,3.2-1.4,5.4-2.5,7.8c-1.1,2.3-2.5,4.4-4.1,6.2c-0.7,1-1.5,2-2.5,2.8c-1,0.7-1.4,1.9-2.5,2.5
			c-1.9,1.5-3.5,3.2-5.7,4.4c-3.5,0.2-6.5-0.2-8.5-1.6c-0.5-0.8-0.3-2.3-0.7-3.2c0.1-2.6,0.5-5,0.9-7.3c0.4-0.4,0.5-1.2,0.7-1.8
			c0.3-0.6,0.6-1.1,0.7-1.8c0.7-1,0.9-2.3,1.6-3.2c1.1-2.2,2.3-4.2,3.9-5.7c3.1-3.4,6.6-6.4,12.4-7.1c0.4,0.1,0.4-0.2,0.7-0.2
			c1.2-0.1,2.1,0.2,3,0.5c0.8,1,1.8,1.9,1.8,3.7C115.5,79.6,116.2,80.6,116.1,82.4z M55.3,32.9h-1.4c-0.1,0.3-0.4,0.4-0.5,0.7
			c-0.6,0.7-1,1.4-1.4,2.3c-0.7,0.6-1.3,1.3-1.1,2.8c0.5,0.4,0.9,0.7,1.6,0.9C54.5,38.5,55.9,35.8,55.3,32.9z M55.3,44.6
			c1.3,0.5,2.2-0.9,2.8-1.8c0.3-1.2,1.2-2.8,0.2-3.9h-1.4C56,40.3,54,42.7,55.3,44.6z M57.4,46c-0.8,1.5-2.2,2.6-2.1,5
			c0.3,0.1,0.6,0.4,0.7,0.7c1.7,0.2,2.4-0.5,2.8-1.6c0.6-1,1.1-2,0.9-3.7C59,45.8,58.4,45.6,57.4,46z M61.7,73
			c0.3-0.4,0.3-1.1,0.7-1.4c0.4-3.8-0.9-5.9-3-7.3c-1.1-0.3-2.5-0.2-3.9-0.2c-0.1,0-0.3,0-0.2,0.2c-1.9,0.2-2.7,1.6-3.7,2.8
			c-0.5,1.9-0.3,4.8,0.5,6.2c1.5,1.4,3.8,2,6.7,2.1c0-0.3,0.6-0.2,0.9-0.2c0.5-0.3,0.7-0.9,1.4-0.9C61.2,73.7,61.5,73.4,61.7,73z
			 M57.2,73c-1.3,0.2-2-0.3-3.2-0.2c-0.6-0.8-1.2-1.5-1.1-3c0.4-2.4,3.9-3.2,5.7-1.6C59.2,70.2,58.5,72.4,57.2,73z M111.1,76.3h-1.8
			c-5.8,2.2-8.4,7.5-13.1,10.8c-0.1,0.9-0.9,1-0.9,1.8c-0.6,0.4-0.6,1.4-1.1,1.8c-0.4,1.5-1.4,2.4-1.6,4.1c-0.1,1.6,0.8,2.1,0.5,3.9
			c0.3,1.3,0.8,2.2,1.6,3c4.3,0.5,5.5-2,7.8-3.4c1.6-2.2,3.4-4.1,4.4-6.9c1.5-1.2,2.9-2.5,4.1-3.9c0.6-1.7,1.4-3.2,2.1-4.8
			C113.6,80,112.9,77.1,111.1,76.3z M110.4,82.7c-1,3.1-3.4,4.7-5.5,6.7c0,0.4-0.2,0.6-0.5,0.7c-0.7,1.7-1.8,2.9-2.5,4.6
			c-1.1,0.7-1.7,1.8-2.8,2.5c-0.9,0.8-1.5,1.8-3.2,1.8c-0.7-2.3,0.2-4.6,0.2-6.9c0.6-1.3,1.4-2.4,2.1-3.7c3.9-2.6,6.2-6.8,10.6-8.9
			c0.2-0.2,0.4-0.3,0.7-0.5h0.2c0.9-0.1,0.5,1.2,0.9,1.6C110.7,81.4,110.6,82.1,110.4,82.7z M67.7,77.9h-3.2c-0.1,0-0.3,0-0.2,0.2
			c-1-0.2-1.1,0.4-1.8,0.5c-0.3,0.5-0.9,0.7-1.4,1.1c-0.4,1.1-0.9,2.2-0.7,3.9c0.5,0.8,0.7,1.9,1.6,2.3c0.8,0.6,1.1,1.5,1.8,2.1
			c1,0.1,1.7,0.5,2.8,0.5c3-0.4,4.6-2.1,5-5c-0.2-1.9-0.9-3.4-1.8-4.6C69,78.6,68.3,78.2,67.7,77.9z M67.9,84.5
			c-0.5,0.7-1,1.3-1.6,1.8h-2.1c-0.6-0.5-1.1-1-1.6-1.6c-0.1-1.5,0.1-2.7,0.7-3.4c0.5-0.2,0.8-0.6,1.6-0.5c0-0.2,0.3-0.2,0.5-0.2
			c0.9-0.1,1.2,0.5,1.8,0.7C67.8,82.1,68.1,83.1,67.9,84.5z"/>
	</g>
</g>
</svg>
