<?xml version="1.0" encoding="utf-8"?>
<!-- Generator: Adobe Illustrator 22.1.0, SVG Export Plug-In . SVG Version: 6.00 Build 0)  -->
<svg version="1.1" id="Capa_1" xmlns="http://www.w3.org/2000/svg" xmlns:xlink="http://www.w3.org/1999/xlink" x="0px" y="0px"
	 viewBox="0 0 468.1 468.1" style="enable-background:new 0 0 468.1 468.1;" xml:space="preserve">
<style type="text/css">
	.st0{fill:#1FBA0A;}
</style>
<g>
	<g>
		<path class="st0" d="M442,2.9c-2.2-2.5-5.6-3.8-9.9-2.3C373.5,21.9,309.5,20,251.5,43.6c-3.8,1.6-5.9,4.6-6.6,7.8
			c-0.5,1.1-0.9,2.2-1,3.5c-2.5,23.2-3.5,46.3-1.4,69.6c-7.7-18.4-9.3-37.8-7.7-57.9c0.7-8.6-7.6-11.6-14-9.1
			c-1.4,0.1-2.8,0.6-4.3,1.4c-28.8,16.7-55.2,36.8-80.1,58.8c-4.7,4.2-4,9.6-0.8,13.2c6.2,21.9,13,43.5,20.4,65
			c-11.4-11.5-18.7-25.5-20.1-42.3c-0.9-11.7-17.3-13.2-20.3-4.1c-0.5,0.8-1,1.6-1.4,2.7c-20.4,56.8-21.9,117.3-2.2,174.4
			c-32.9,39.4-63.1,81.4-90.4,126c-7,11.5,11,21.9,18,10.5c28.7-46.9,60.7-90.9,95.8-132c1,0.3,2,0.6,3.1,0.7
			c88.5,6.1,159.9-36.7,228.8-87.2c9.9-7.3,1.7-23.4-8.2-19.2c-0.8,0-1.6,0.1-2.4,0.2c-16.6,3.3-33.3,3.2-49.7-0.8
			c-0.3-0.2-0.5-0.5-0.8-0.7c-2.2-1.7-3.4-3.2-3.3-4.9c24.7,2.1,49.2,1.4,73.6-3.3c1.7-0.3,3.1-1,4.3-1.9c1-0.5,2-1.2,2.9-2.1
			c52.9-54,65-126.8,64.1-199.8C447.9,7.3,445.3,4.3,442,2.9z M370.2,195.8c-23.8,4.5-47.7,4.4-71.8,2.1c-1-0.1-1.9,0-2.7,0.1
			c-2.3,0.2-4.5,1.1-6,3c-5.3,6.7-8.5,13.5-7.2,22.2c1,7.4,5.8,12.9,11.4,17.4c1.2,1.7,3,3.1,5.7,3.8c8.8,2.3,17.7,3.6,26.6,4.1
			c-52.8,35.8-108,63.6-173.6,63.1c47.7-53.2,100.7-101.4,158.9-144.9c1.2-0.9,2.1-1.9,2.8-3c0.7-0.3,1.3-0.8,1.9-1.3
			c28.5-22.4,52.5-49,73.1-78.8c7.7-11.1-10.4-21.4-18-10.5c-19.6,28.3-42.8,53.3-69.9,74.6c-0.9,0.7-1.5,1.4-2,2.2
			C236.3,197.1,179,249.7,128,308c-11.1-39.4-11.8-79.5-2.8-119c5.5,10.5,13.2,19.9,22.9,27.9c0.1,0.1,0.3,0.2,0.4,0.3
			c2.5,3.2,6.8,4.7,11,3.7c9.4-2.2,15.3-10,17.7-19c0.2-0.8,0.3-1.6,0.3-2.4c0.4-1.7,0.4-3.6-0.3-5.7c-7.6-21.7-14.5-43.7-20.8-65.9
			c18.1-15.6,37-29.9,57.1-42.7c0.6,20.2,5.2,39.7,14.9,58.1c1.9,3.6,4.9,5.1,8,5.2c3.1,1.6,6.8,1.6,10.1-0.1
			c6.2-3.2,11.1-8.1,14-14.3c1.9-1.7,3.1-4.2,2.8-7.7c-2.1-21.9-1.4-43.6,0.7-65.4c52.6-19.4,109.8-19.9,163.1-36.7
			C426.6,87,415.3,149,370.2,195.8z"/>
	</g>
</g>
</svg>
